<?xml version="1.0" encoding="UTF-8" standalone="no"?>
<!-- Created with Inkscape (http://www.inkscape.org/) -->

<svg
   version="1.1"
   id="svg1"
   width="1440"
   height="1440"
   viewBox="0 0 1440 1440"
   sodipodi:docname="DELTA LOGO.ai"
   xmlns:inkscape="http://www.inkscape.org/namespaces/inkscape"
   xmlns:sodipodi="http://sodipodi.sourceforge.net/DTD/sodipodi-0.dtd"
   xmlns="http://www.w3.org/2000/svg"
   xmlns:svg="http://www.w3.org/2000/svg">
  <defs
     id="defs1">
    <clipPath
       clipPathUnits="userSpaceOnUse"
       id="clipPath261">
      <path
         d="M 0,1080 H 1080 V 0 H 0 Z"
         transform="translate(-406.23181,-277.19431)"
         id="path261" />
    </clipPath>
    <clipPath
       clipPathUnits="userSpaceOnUse"
       id="clipPath263">
      <path
         d="M 0,1080 H 1080 V 0 H 0 Z"
         transform="translate(-266.06221,-140.03693)"
         id="path263" />
    </clipPath>
    <clipPath
       clipPathUnits="userSpaceOnUse"
       id="clipPath265">
      <path
         d="M 0,1080 H 1080 V 0 H 0 Z"
         transform="translate(-352.62383,-245.54281)"
         id="path265" />
    </clipPath>
    <clipPath
       clipPathUnits="userSpaceOnUse"
       id="clipPath267">
      <path
         d="M 0,1080 H 1080 V 0 H 0 Z"
         transform="translate(-490.11054,-245.54281)"
         id="path267" />
    </clipPath>
    <clipPath
       clipPathUnits="userSpaceOnUse"
       id="clipPath269">
      <path
         d="M 0,1080 H 1080 V 0 H 0 Z"
         transform="translate(-576.03961,-246.97501)"
         id="path269" />
    </clipPath>
    <clipPath
       clipPathUnits="userSpaceOnUse"
       id="clipPath271">
      <path
         d="M 0,1080 H 1080 V 0 H 0 Z"
         transform="translate(-897.8149,-172.49603)"
         id="path271" />
    </clipPath>
    <clipPath
       clipPathUnits="userSpaceOnUse"
       id="clipPath273">
      <path
         d="M 0,1080 H 1080 V 0 H 0 Z"
         transform="translate(-165.74963,-590.61571)"
         id="path273" />
    </clipPath>
    <clipPath
       clipPathUnits="userSpaceOnUse"
       id="clipPath275">
      <path
         d="M 0,1080 H 1080 V 0 H 0 Z"
         transform="translate(-333.54181,-606.84502)"
         id="path275" />
    </clipPath>
    <clipPath
       clipPathUnits="userSpaceOnUse"
       id="clipPath277">
      <path
         d="M 0,1080 H 1080 V 0 H 0 Z"
         transform="translate(-343.41383,-604.75112)"
         id="path277" />
    </clipPath>
    <clipPath
       clipPathUnits="userSpaceOnUse"
       id="clipPath279">
      <path
         d="M 0,1080 H 1080 V 0 H 0 Z"
         transform="translate(-490.90194,-486.85261)"
         id="path279" />
    </clipPath>
    <clipPath
       clipPathUnits="userSpaceOnUse"
       id="clipPath281">
      <path
         d="M 0,1080 H 1080 V 0 H 0 Z"
         transform="translate(-515.70249,-528.64732)"
         id="path281" />
    </clipPath>
    <clipPath
       clipPathUnits="userSpaceOnUse"
       id="clipPath283">
      <path
         d="M 0,1080 H 1080 V 0 H 0 Z"
         transform="translate(-278.79488,-338.49821)"
         id="path283" />
    </clipPath>
    <clipPath
       clipPathUnits="userSpaceOnUse"
       id="clipPath285">
      <path
         d="M 0,1080 H 1080 V 0 H 0 Z"
         transform="translate(-490.90194,-486.85261)"
         id="path285" />
    </clipPath>
    <clipPath
       clipPathUnits="userSpaceOnUse"
       id="clipPath287">
      <path
         d="M 0,1080 H 1080 V 0 H 0 Z"
         transform="translate(-340.46033,-613.16501)"
         id="path287" />
    </clipPath>
    <clipPath
       clipPathUnits="userSpaceOnUse"
       id="clipPath289">
      <path
         d="M 0,1080 H 1080 V 0 H 0 Z"
         transform="translate(-592.07341,-464.64131)"
         id="path289" />
    </clipPath>
    <clipPath
       clipPathUnits="userSpaceOnUse"
       id="clipPath291">
      <path
         d="M 0,1080 H 1080 V 0 H 0 Z"
         transform="translate(-536.57671,-440.74431)"
         id="path291" />
    </clipPath>
    <clipPath
       clipPathUnits="userSpaceOnUse"
       id="clipPath293">
      <path
         d="M 0,1080 H 1080 V 0 H 0 Z"
         transform="translate(-378.49081,-425.40441)"
         id="path293" />
    </clipPath>
    <clipPath
       clipPathUnits="userSpaceOnUse"
       id="clipPath295">
      <path
         d="M 0,1080 H 1080 V 0 H 0 Z"
         transform="translate(-415.87344,-461.65361)"
         id="path295" />
    </clipPath>
    <clipPath
       clipPathUnits="userSpaceOnUse"
       id="clipPath297">
      <path
         d="M 0,1080 H 1080 V 0 H 0 Z"
         transform="translate(-167.73173,-585.08122)"
         id="path297" />
    </clipPath>
    <clipPath
       clipPathUnits="userSpaceOnUse"
       id="clipPath299">
      <path
         d="M 0,1080 H 1080 V 0 H 0 Z"
         transform="translate(-250.67371,-544.35802)"
         id="path299" />
    </clipPath>
    <clipPath
       clipPathUnits="userSpaceOnUse"
       id="clipPath301">
      <path
         d="M 0,1080 H 1080 V 0 H 0 Z"
         transform="translate(-472.09584,-448.84921)"
         id="path301" />
    </clipPath>
    <clipPath
       clipPathUnits="userSpaceOnUse"
       id="clipPath303">
      <path
         d="M 0,1080 H 1080 V 0 H 0 Z"
         transform="translate(-714.83702,-554.03692)"
         id="path303" />
    </clipPath>
    <clipPath
       clipPathUnits="userSpaceOnUse"
       id="clipPath305">
      <path
         d="M 0,1080 H 1080 V 0 H 0 Z"
         transform="translate(-673.42944,-515.54161)"
         id="path305" />
    </clipPath>
    <clipPath
       clipPathUnits="userSpaceOnUse"
       id="clipPath307">
      <path
         d="M 0,1080 H 1080 V 0 H 0 Z"
         transform="translate(-745.87052,-562.38772)"
         id="path307" />
    </clipPath>
    <clipPath
       clipPathUnits="userSpaceOnUse"
       id="clipPath309">
      <path
         d="M 0,1080 H 1080 V 0 H 0 Z"
         transform="translate(-751.59122,-525.22451)"
         id="path309" />
    </clipPath>
    <clipPath
       clipPathUnits="userSpaceOnUse"
       id="clipPath311">
      <path
         d="M 0,1080 H 1080 V 0 H 0 Z"
         transform="translate(-739.05039,-547.85261)"
         id="path311" />
    </clipPath>
    <clipPath
       clipPathUnits="userSpaceOnUse"
       id="clipPath313">
      <path
         d="M 0,1080 H 1080 V 0 H 0 Z"
         transform="translate(-714.83702,-554.03692)"
         id="path313" />
    </clipPath>
    <clipPath
       clipPathUnits="userSpaceOnUse"
       id="clipPath315">
      <path
         d="M 0,1080 H 1080 V 0 H 0 Z"
         transform="translate(-384.66061,-569.22581)"
         id="path315" />
    </clipPath>
    <clipPath
       clipPathUnits="userSpaceOnUse"
       id="clipPath317">
      <path
         d="M 0,1080 H 1080 V 0 H 0 Z"
         transform="translate(-258.63938,-535.79431)"
         id="path317" />
    </clipPath>
    <clipPath
       clipPathUnits="userSpaceOnUse"
       id="clipPath319">
      <path
         d="M 0,1080 H 1080 V 0 H 0 Z"
         transform="translate(-389.18528,-543.42311)"
         id="path319" />
    </clipPath>
    <clipPath
       clipPathUnits="userSpaceOnUse"
       id="clipPath321">
      <path
         d="M 0,1080 H 1080 V 0 H 0 Z"
         transform="translate(-393.49223,-569.21531)"
         id="path321" />
    </clipPath>
    <clipPath
       clipPathUnits="userSpaceOnUse"
       id="clipPath323">
      <path
         d="M 0,1080 H 1080 V 0 H 0 Z"
         id="path323" />
    </clipPath>
    <clipPath
       clipPathUnits="userSpaceOnUse"
       id="clipPath325">
      <path
         d="M 0,1080 H 1080 V 0 H 0 Z"
         transform="translate(-444.81091,-584.73031)"
         id="path325" />
    </clipPath>
    <clipPath
       clipPathUnits="userSpaceOnUse"
       id="clipPath327">
      <path
         d="M 0,1080 H 1080 V 0 H 0 Z"
         transform="translate(-444.81091,-571.36351)"
         id="path327" />
    </clipPath>
    <clipPath
       clipPathUnits="userSpaceOnUse"
       id="clipPath329">
      <path
         d="M 0,1080 H 1080 V 0 H 0 Z"
         transform="translate(-443.37879,-555.37121)"
         id="path329" />
    </clipPath>
    <clipPath
       clipPathUnits="userSpaceOnUse"
       id="clipPath331">
      <path
         d="M 0,1080 H 1080 V 0 H 0 Z"
         id="path331" />
    </clipPath>
    <clipPath
       clipPathUnits="userSpaceOnUse"
       id="clipPath333">
      <path
         d="M 0,1080 H 1080 V 0 H 0 Z"
         id="path333" />
    </clipPath>
    <clipPath
       clipPathUnits="userSpaceOnUse"
       id="clipPath335">
      <path
         d="M 0,1080 H 1080 V 0 H 0 Z"
         id="path335" />
    </clipPath>
    <clipPath
       clipPathUnits="userSpaceOnUse"
       id="clipPath337">
      <path
         d="M 0,1080 H 1080 V 0 H 0 Z"
         id="path337" />
    </clipPath>
    <clipPath
       clipPathUnits="userSpaceOnUse"
       id="clipPath339">
      <path
         d="M 0,1080 H 1080 V 0 H 0 Z"
         transform="translate(-822.42182,-582.58201)"
         id="path339" />
    </clipPath>
    <clipPath
       clipPathUnits="userSpaceOnUse"
       id="clipPath341">
      <path
         d="M 0,1080 H 1080 V 0 H 0 Z"
         transform="translate(-589.93569,-560.86111)"
         id="path341" />
    </clipPath>
    <clipPath
       clipPathUnits="userSpaceOnUse"
       id="clipPath343">
      <path
         d="M 0,1080 H 1080 V 0 H 0 Z"
         transform="translate(-529.78531,-526.56901)"
         id="path343" />
    </clipPath>
    <clipPath
       clipPathUnits="userSpaceOnUse"
       id="clipPath345">
      <path
         d="M 0,1080 H 1080 V 0 H 0 Z"
         transform="translate(-536.70744,-503.33632)"
         id="path345" />
    </clipPath>
    <clipPath
       clipPathUnits="userSpaceOnUse"
       id="clipPath347">
      <path
         d="M 0,1080 H 1080 V 0 H 0 Z"
         transform="translate(-494.93634,-594.03922)"
         id="path347" />
    </clipPath>
    <clipPath
       clipPathUnits="userSpaceOnUse"
       id="clipPath349">
      <path
         d="M 0,1080 H 1080 V 0 H 0 Z"
         transform="translate(-497.08449,-629.36572)"
         id="path349" />
    </clipPath>
    <clipPath
       clipPathUnits="userSpaceOnUse"
       id="clipPath351">
      <path
         d="M 0,1080 H 1080 V 0 H 0 Z"
         id="path351" />
    </clipPath>
    <clipPath
       clipPathUnits="userSpaceOnUse"
       id="clipPath353">
      <path
         d="M 0,1080 H 1080 V 0 H 0 Z"
         transform="translate(-564.87301,-632.94602)"
         id="path353" />
    </clipPath>
    <clipPath
       clipPathUnits="userSpaceOnUse"
       id="clipPath355">
      <path
         d="M 0,1080 H 1080 V 0 H 0 Z"
         transform="translate(-773.52834,-559.66132)"
         id="path355" />
    </clipPath>
    <clipPath
       clipPathUnits="userSpaceOnUse"
       id="clipPath357">
      <path
         d="M 0,1080 H 1080 V 0 H 0 Z"
         transform="translate(-770.76759,-571.14652)"
         id="path357" />
    </clipPath>
    <clipPath
       clipPathUnits="userSpaceOnUse"
       id="clipPath359">
      <path
         d="M 0,1080 H 1080 V 0 H 0 Z"
         transform="translate(-321.73013,-516.38951)"
         id="path359" />
    </clipPath>
    <clipPath
       clipPathUnits="userSpaceOnUse"
       id="clipPath361">
      <path
         d="M 0,1080 H 1080 V 0 H 0 Z"
         transform="translate(-320.34128,-655.72022)"
         id="path361" />
    </clipPath>
    <clipPath
       clipPathUnits="userSpaceOnUse"
       id="clipPath363">
      <path
         d="M 0,1080 H 1080 V 0 H 0 Z"
         transform="translate(-234.10801,-638.29442)"
         id="path363" />
    </clipPath>
    <clipPath
       clipPathUnits="userSpaceOnUse"
       id="clipPath365">
      <path
         d="M 0,1080 H 1080 V 0 H 0 Z"
         transform="translate(-364.28048,-685.33772)"
         id="path365" />
    </clipPath>
    <clipPath
       clipPathUnits="userSpaceOnUse"
       id="clipPath367">
      <path
         d="M 0,1080 H 1080 V 0 H 0 Z"
         transform="translate(-210.54893,-664.77041)"
         id="path367" />
    </clipPath>
    <clipPath
       clipPathUnits="userSpaceOnUse"
       id="clipPath369">
      <path
         d="M 0,1080 H 1080 V 0 H 0 Z"
         transform="translate(-442.47331,-679.80292)"
         id="path369" />
    </clipPath>
    <clipPath
       clipPathUnits="userSpaceOnUse"
       id="clipPath371">
      <path
         d="M 0,1080 H 1080 V 0 H 0 Z"
         id="path371" />
    </clipPath>
    <clipPath
       clipPathUnits="userSpaceOnUse"
       id="clipPath373">
      <path
         d="M 0,1080 H 1080 V 0 H 0 Z"
         transform="translate(-589.93569,-580.18351)"
         id="path373" />
    </clipPath>
  </defs>
  <sodipodi:namedview
     id="namedview1"
     pagecolor="#ffffff"
     bordercolor="#000000"
     borderopacity="0.25"
     inkscape:showpageshadow="2"
     inkscape:pageopacity="0.0"
     inkscape:pagecheckerboard="0"
     inkscape:deskcolor="#d1d1d1">
    <inkscape:page
       x="0"
       y="0"
       inkscape:label="3"
       id="page258"
       width="1440"
       height="1440"
       margin="0"
       bleed="0" />
  </sodipodi:namedview>
  <g
     id="layer-MC0"
     inkscape:groupmode="layer"
     inkscape:label="Layer 1"
     transform="translate(-2920)">
    <path
       id="path259"
       d="M 0,0 H 1080 V 1080 H 0 Z"
       style="fill:#000000;fill-opacity:1;fill-rule:nonzero;stroke:none"
       transform="matrix(1.3333333,0,0,-1.3333333,2920,1440)" />
    <path
       id="path260"
       d="M 0,0 C 9.313,3.9 18.957,3.092 28.62,2.014 19.242,-0.952 9.66,-1.039 0,0"
       style="fill:#000000;fill-opacity:1;fill-rule:nonzero;stroke:none"
       transform="matrix(1.3333333,0,0,-1.3333333,3461.6424,1070.4076)"
       clip-path="url(#clipPath261)" />
    <path
       id="path262"
       d="m 0,0 h -89.112 v 66.189 h 54.746 L 0,34.366 Z m -15.594,104.071 -124.114,0.972 V 83.391 h 8.601 V -6.768 c 0,0 -7.255,0.074 -8.601,0.074 V -38.18 H 37.881 v 90.683 z"
       style="fill:#ffffff;fill-opacity:1;fill-rule:nonzero;stroke:none"
       transform="matrix(1.3333333,0,0,-1.3333333,3274.7496,1253.2841)"
       clip-path="url(#clipPath263)" />
    <path
       id="path264"
       d="m 0,0 -36.281,-52.99 v -91.18 h 193.34 l -38.19,40.1 H 11.457 v 12.89 h 106.457 v 39.145 H 15.276 L 27.211,-40.1 h 92.612 v 39.623 z"
       style="fill:#ffffff;fill-opacity:1;fill-rule:nonzero;stroke:none"
       transform="matrix(1.3333333,0,0,-1.3333333,3390.1651,1112.6096)"
       clip-path="url(#clipPath265)" />
    <path
       id="path266"
       d="m 0,0 h 51.557 v -85.452 l 18.141,-19.573 H 176.632 V -144.17 H 38.668 l -40.1,42.01 z"
       style="fill:#ffffff;fill-opacity:1;fill-rule:nonzero;stroke:none"
       transform="matrix(1.3333333,0,0,-1.3333333,3573.4807,1112.6096)"
       clip-path="url(#clipPath267)" />
    <path
       id="path268"
       d="m 0,0 v -41.532 h 103.592 v -103.593 h 49.171 v 102.638 h 32.939 l 40.578,41.055 z"
       style="fill:#ffffff;fill-opacity:1;fill-rule:nonzero;stroke:none"
       transform="matrix(1.3333333,0,0,-1.3333333,3688.0528,1110.7)"
       clip-path="url(#clipPath269)" />
    <path
       id="path270"
       d="M 0,0 H -92.142 L -62.076,32.945 0,33.431 Z M 55.831,53.475 V 74.491 H -77.37 l -53.438,-54.447 v -89.749 h 38.18 V -38.18 H 1.421 v -32.459 h 54.41 v 31.037 h -8.115 v 93.077 z"
       style="fill:#ffffff;fill-opacity:1;fill-rule:nonzero;stroke:none"
       transform="matrix(1.3333333,0,0,-1.3333333,4117.0865,1210.0053)"
       clip-path="url(#clipPath271)" />
    <path
       id="path272"
       d="m 0,0 c -4.562,6.507 -10.657,2.842 -16.266,2.543 -2.132,-1.234 -4.152,-2.917 -6.432,-3.553 -4.339,-1.197 -5.236,-3.664 -3.029,-7.104 3.664,-5.759 19.557,-4.077 27.709,2.58 C 6.881,-1.533 3.814,-0.673 0,0 m 43.491,76.286 c -0.037,0.037 -0.075,0.037 -0.112,0.074 -3.142,1.571 -6.844,-0.672 -6.844,-4.187 v -5.61 c 0,-1.196 0.86,-2.206 2.057,-2.393 l 3.44,-0.523 c 1.459,-0.225 2.767,0.897 2.767,2.392 v 8.116 c 0,0.897 -0.485,1.72 -1.308,2.131 m 32.833,55.98 c -14.622,-0.261 -27,-9.423 -31.225,-12.939 -1.01,-0.86 -1.833,-1.907 -2.356,-3.14 -3.926,-9.686 -3.366,-21.278 -2.655,-27.261 0.224,-2.207 1.72,-4.002 3.702,-4.937 4.001,-1.944 8.339,-6.469 8.339,-6.469 V 47.679 h 16.229 c -4.15,23.596 7.966,84.587 7.966,84.587 M 46.594,-17.95 c 13.425,-7.516 27.299,-14.584 38.33,-28.308 -0.486,13.126 -17.724,25.429 -38.33,28.308 M 79.24,39.302 c 1.197,0.561 2.319,1.047 3.329,1.458 -1.122,-0.224 -2.244,-0.673 -3.329,-1.458 m 39.079,-94.123 v 7.516 l -6.209,6.47 h -22.1 c -0.112,0 0,15.967 0,15.967 h -3.328 v -40.461 l 6.208,-9.237 h 5.871 l -0.299,14.173 H 92.89 v 5.572 z m 18.473,184.844 c 0,0 -8.302,9.199 -29.206,7.254 -1.533,-0.112 -3.029,-0.673 -4.338,-1.458 -4.076,-2.543 -13.313,-8.563 -17.277,-13.575 -1.122,-1.458 -1.72,-3.215 -1.832,-5.048 L 79.801,48.239 c 0,0 31.188,-5.422 74.791,16.866 0,0 -13.351,61.44 -17.8,64.918 M 79.24,39.302 c 1.197,0.561 2.319,1.047 3.329,1.458 -1.122,-0.224 -2.244,-0.673 -3.329,-1.458 m 0,0 c 1.197,0.561 2.319,1.047 3.329,1.458 -1.122,-0.224 -2.244,-0.673 -3.329,-1.458 m 0,0 c 1.197,0.561 2.319,1.047 3.329,1.458 -1.122,-0.224 -2.244,-0.673 -3.329,-1.458 m 0,0 c 1.197,0.561 2.319,1.047 3.329,1.458 -1.122,-0.224 -2.244,-0.673 -3.329,-1.458 m 0,0 c 1.197,0.561 2.319,1.047 3.329,1.458 -1.122,-0.224 -2.244,-0.673 -3.329,-1.458 m 0,0 c 1.197,0.561 2.319,1.047 3.329,1.458 -1.122,-0.224 -2.244,-0.673 -3.329,-1.458"
       style="fill:#000000;fill-opacity:1;fill-rule:nonzero;stroke:none"
       transform="matrix(1.3333333,0,0,-1.3333333,3140.9995,652.5124)"
       clip-path="url(#clipPath273)" />
    <path
       id="path274"
       d="M 0,0 4.899,5.722 C 2.318,4.6 1.01,2.431 0,0"
       style="fill:#000000;fill-opacity:1;fill-rule:nonzero;stroke:none"
       transform="matrix(1.3333333,0,0,-1.3333333,3364.7224,630.87333)"
       clip-path="url(#clipPath275)" />
    <path
       id="path276"
       d="M 0,0 C -8.9,-0.037 1.272,6.507 -2.953,8.414 -3.702,8.302 -4.338,8.077 -4.936,7.815 h -0.037 l -4.899,-5.721 -1.57,-1.795 -2.656,-3.104 c 0.711,-0.037 1.496,0.038 2.319,0.15 0.337,0.748 0.635,1.496 0.897,2.281 0.636,-0.748 1.346,-1.496 2.057,-2.281 1.571,-0.935 3.216,-1.795 4.712,-2.805 3.103,-2.056 9.947,3.628 9.872,-5.497 -0.075,-6.133 -3.067,-8.077 -7.891,-9.573 -2.168,-0.673 -4.15,-1.944 -6.357,-3.029 4.862,-4.487 10.583,3.366 15.968,-2.094 -4.225,-4.039 -9.349,-2.094 -13.836,-2.655 -10.882,-1.533 -21.727,-3.141 -32.608,-3.291 -8.937,-0.187 -17.838,0.598 -26.738,3.141 -3.478,2.132 -2.767,8.152 -9.461,8.788 4.263,-10.62 -2.131,-11.106 -9.76,-10.957 -3.515,0.038 -7.404,-0.561 -10.508,-2.094 -2.131,-1.047 0.673,-9.049 -5.722,-5.161 -3.776,2.319 -1.795,6.694 0,9.985 4.6,8.339 5.684,18.96 17.165,22.773 4.151,1.384 2.057,5.685 -1.907,6.545 -13.762,2.991 -16.006,11.78 -12.528,23.746 1.084,0.785 2.206,1.234 3.329,1.458 11.218,4.712 13.05,2.431 15.145,-12.639 2.355,-2.543 1.832,-7.143 5.908,-8.526 7.404,-3.329 13.612,-3.179 16.866,5.721 0.821,0.972 1.645,1.982 2.43,2.954 5.984,23.634 15.183,28.346 36.946,18.997 h 2.767 c 2.767,0.149 5.535,0.411 8.302,0.411 2.169,0 4.226,-0.299 6.133,-0.86 L 5.273,19.67 12.116,4.6 C 9.686,0.486 4.637,0 0,0 m -59.346,-68.957 h -25.428 v -5.572 h 5.571 l 0.3,-14.172 h -5.871 l -6.208,9.236 v 40.462 h 3.328 c 0,0 -0.112,-15.968 0,-15.968 h 22.1 l 6.208,-6.469 z m -71.724,36.872 c 20.606,-2.88 37.844,-15.182 38.33,-28.308 -11.031,13.724 -24.905,20.791 -38.33,28.308 m 21.764,65.628 h -16.23 v 29.842 c 0,0 -4.337,4.524 -8.339,6.469 -1.981,0.935 -3.477,2.73 -3.701,4.936 -0.711,5.983 -1.272,17.576 2.655,27.261 0.523,1.234 1.346,2.281 2.356,3.141 4.225,3.515 16.603,12.677 31.225,12.939 0,0 -12.116,-60.991 -7.966,-84.588 m -23.559,18.361 c 0,-1.495 -1.308,-2.618 -2.767,-2.393 l -3.44,0.523 c -1.197,0.187 -2.057,1.197 -2.057,2.394 v 5.609 c 0,3.515 3.702,5.759 6.844,4.188 0.037,-0.037 0.074,-0.037 0.112,-0.075 0.822,-0.411 1.308,-1.233 1.308,-2.131 z m 39.34,51.157 c 0.112,1.832 0.71,3.59 1.832,5.048 3.964,5.011 13.201,11.032 17.277,13.575 1.308,0.785 2.805,1.345 4.338,1.458 20.904,1.944 29.205,-7.255 29.205,-7.255 4.45,-3.478 17.801,-64.918 17.801,-64.918 C -66.675,28.682 -97.863,34.104 -97.863,34.104 Z M -175.682,-19.67 c -8.152,-6.656 -24.045,-8.339 -27.71,-2.58 -2.206,3.44 -1.309,5.908 3.03,7.105 2.28,0.635 4.3,2.318 6.432,3.552 5.609,0.3 11.704,3.964 16.266,-2.542 3.814,-0.673 6.881,-1.534 1.982,-5.535 m 473.833,-107.436 4.151,3.926 5.945,-17.575 145.131,-24.831 -31.337,88.439 v 0.038 l 0.261,3.478 0.637,8.9 3.178,1.907 5.721,3.814 h 11.444 l 8.301,6.357 v 1.982 h 17.053 l 37.544,-106.313 -28.607,3.178 6.357,-19.109 130.472,-23.522 -110.129,158.182 24.942,0.897 -1.271,20.978 h -38.891 l -119.702,171.906 57.925,-161.809 -8.152,-0.523 -21.839,-0.449 -62.299,175.832 -32.235,9.386 -42.256,119.515 32.944,-13.35 -9.049,23.858 -150.851,65.89 130.284,-383.748 -6.395,-0.113 -33.095,-1.271 0.636,41.995 h -15.032 l -1.534,-5.722 -5.722,3.179 -24.232,-0.636 h -0.598 l -1.197,-0.336 1.272,1.42 41.845,46.071 L 171.382,212.18 60.431,83.578 H 29.58 l -2.805,6.432 29.392,37.545 v 35.001 l 83.092,92.927 7.293,-26.102 14.659,16.529 -43.94,127.966 L 1.87,129.088 l -3.515,0.935 -58.523,8.301 -1.945,8.265 -6.993,2.542 -5.085,-1.271 -8.901,-2.543 -1.907,-8.9 -53.475,-21.652 -4.45,-8.264 -1.271,-10.209 -1.683,-26.476 v -0.037 c -1.346,-5.908 -1.758,-11.817 -1.196,-17.725 v -0.075 l -0.935,-12.34 4.45,-13.35 3.179,-12.752 6.357,-11.443 10.806,-8.264 10.845,-8.265 5.086,-3.215 -3.815,-8.901 -14.023,10.845 -20.979,5.721 -15.929,5.086 -28.01,-1.271 -11.442,-1.272 -5.086,-2.543 -8.937,-7.665 0.635,-7.629 1.907,-5.722 3.216,-3.814 -10.209,-7.629 -0.636,-7.03 0.636,-4.45 4.451,-6.993 v -5.721 l -0.637,-6.993 -1.271,-5.759 -3.814,-4.45 v -10.807 l 3.179,-3.815 3.178,-5.085 4.45,-3.852 1.309,-6.357 -1.309,-41.995 2.581,-25.465 6.992,-28.646 15.258,-41.358 22.922,-42.668 28.009,-40.088 8.264,-10.807 5.386,0.86 0.149,0.038 432.923,29.691 -187.124,37.545 -26.103,-20.38 -124.75,25.465 17.165,22.924 -10.171,0.636 30.551,23.559 328.442,-63.011 29.279,22.886 117.758,-24.794 -26.738,-22.287 22.923,-3.178 131.108,95.469 -349.57,71.911 z"
       style="fill:#ffffff;fill-opacity:1;fill-rule:nonzero;stroke:none"
       transform="matrix(1.3333333,0,0,-1.3333333,3377.8851,633.6652)"
       clip-path="url(#clipPath277)" />
    <path
       id="path278"
       d="M 0,0 C -4.904,1.194 -7.304,4.379 -7.987,9.395 -1.973,12.748 0.721,5.205 5.549,6.063 3.699,4.042 1.85,2.021 0,0"
       style="fill:#000000;fill-opacity:1;fill-rule:nonzero;stroke:none"
       transform="matrix(1.3333333,0,0,-1.3333333,3574.5359,790.8632)"
       clip-path="url(#clipPath279)" />
    <path
       id="path280"
       d="m 0,0 v -9.548 l -2.387,-2.864 v -4.296 l 2.387,-1.91 6.206,3.342 3.819,5.967 V 0 Z"
       style="fill:#000000;fill-opacity:1;fill-rule:nonzero;stroke:none"
       transform="matrix(1.3333333,0,0,-1.3333333,3607.6033,735.13693)"
       clip-path="url(#clipPath281)" />
    <path
       id="path282"
       d="m 0,0 c -15.818,-18.96 -30.439,-36.311 -44.724,-53.775 -0.524,-0.598 -1.048,-1.233 -1.533,-1.832 -3.74,-4.525 -5.909,-4.487 -9.424,0.3 -29.206,39.563 -55.644,80.586 -67.759,129.013 -0.712,2.917 -6.619,7.553 -0.562,10.283 4.787,2.206 6.993,-3.291 9.761,-6.133 19.482,-20.081 39.152,-40.013 58.223,-60.468 11.406,-12.19 23.784,-20.604 41.509,-17.5 0.823,0.149 1.608,0.224 2.468,0.261 C -8.675,0.373 -4.935,0 0,0"
       style="fill:#000000;fill-opacity:1;fill-rule:nonzero;stroke:none"
       transform="matrix(1.3333333,0,0,-1.3333333,3291.7265,988.66907)"
       clip-path="url(#clipPath283)" />
    <path
       id="path284"
       d="m 0,0 c 4.025,-15.271 -6.144,-4.886 -10.301,-5.648 -2.067,-3.03 -0.047,-4.99 1.95,-6.962 2.225,-2.196 3.2,-4.632 0.866,-7.279 -1.671,-1.894 -4.14,-2.641 -6.362,-1.757 -11.507,4.577 -22.622,1.701 -34.051,-0.686 -10.162,-2.124 -19.515,-0.768 -22.285,12.067 -0.57,2.642 -2.348,5.04 -3.653,7.507 -10.069,19.031 -9.225,17.793 8.887,30.267 26.086,17.964 53.848,16.88 82.691,11.752 2.507,-0.446 4.544,-1.125 4.628,-4.026 0.113,-3.872 -1.911,-5.718 -5.725,-6.494 C 8.063,26.995 -0.876,30.572 -9.443,27.161 -8.044,17.269 10.392,19.969 5.549,6.063 4.985,2.866 -3.884,7.266 0,0"
       style="fill:#000000;fill-opacity:1;fill-rule:nonzero;stroke:none"
       transform="matrix(1.3333333,0,0,-1.3333333,3574.5359,790.8632)"
       clip-path="url(#clipPath285)" />
    <path
       id="path286"
       d="M 0,0 C -0.749,-0.112 -1.384,-0.337 -1.983,-0.598 H -2.019 C -4.6,-1.72 -5.909,-3.889 -6.918,-6.32 l -1.571,-1.795 c 0.149,-0.224 0.374,-0.449 0.561,-0.673 0.635,-0.748 1.346,-1.496 2.057,-2.281 1.57,-0.935 3.215,-1.795 4.712,-2.804 3.103,-2.057 9.946,3.627 9.871,-5.498 -0.074,-6.133 -3.066,-8.077 -7.89,-9.573 -2.169,-0.673 -4.151,-1.944 -6.357,-3.029 4.861,-4.487 10.583,3.366 15.967,-2.094 -4.225,-4.039 -9.348,-2.094 -13.836,-2.655 -10.881,-1.533 -21.726,-3.141 -32.608,-3.291 -8.937,-0.187 -17.837,0.598 -26.738,3.141 -3.477,2.132 -2.766,8.152 -9.46,8.788 4.262,-10.62 -2.132,-11.106 -9.761,-10.957 -3.515,0.038 -7.404,-0.561 -10.508,-2.094 -2.131,-1.047 0.674,-9.049 -5.721,-5.161 -3.776,2.319 -1.795,6.694 0,9.986 4.599,8.339 5.684,18.959 17.164,22.773 4.151,1.384 2.057,5.684 -1.907,6.544 -13.761,2.991 -16.005,11.78 -12.528,23.746 1.197,0.56 2.319,1.047 3.329,1.458 11.219,4.712 13.051,2.431 15.145,-12.639 2.356,-2.543 1.833,-7.143 5.908,-8.526 7.404,-3.329 13.612,-3.179 16.866,5.721 0.822,0.973 1.645,1.982 2.43,2.955 5.984,23.633 15.183,28.345 36.946,18.996 h 2.768 c 2.767,0.149 5.535,0.411 8.301,0.411 2.169,0 4.226,-0.299 6.133,-0.86 L 8.227,11.256 15.069,-3.814 C 12.639,-7.928 7.59,-8.414 2.953,-8.414 -5.946,-8.451 4.225,-1.907 0,0"
       style="fill:#000000;fill-opacity:1;fill-rule:nonzero;stroke:none"
       transform="matrix(1.3333333,0,0,-1.3333333,3373.9471,622.44667)"
       clip-path="url(#clipPath287)" />
    <path
       id="path288"
       d="m 0,0 c 0.496,12.323 -4.053,23.697 -7.004,35.312 -3.713,14.618 -0.61,20.994 13.876,25.195 2.215,0.642 4.573,0.789 6.796,1.409 23.959,6.68 39.563,-2.749 44.318,-26.899 0.849,-4.313 -2.137,-6.85 -5.047,-9.014 C 47.392,21.879 41.613,18.068 35.931,14.127 23.294,11.096 14.615,-1.997 0,0"
       style="fill:#000000;fill-opacity:1;fill-rule:nonzero;stroke:none"
       transform="matrix(1.3333333,0,0,-1.3333333,3709.4312,820.47827)"
       clip-path="url(#clipPath289)" />
    <path
       id="path290"
       d="m 0,0 c -18.323,2.59 -34.976,4.876 -51.6,7.346 -3.55,0.528 -5.716,3.506 -6.568,6.527 -1.249,4.426 3.303,3.141 5.337,4.291 8.264,4.671 11.578,13.316 14.339,21.154 2.285,6.486 3.277,10.386 11.401,10.196 7.899,-0.185 13.471,-1.502 15.734,-9.983 C -8.027,27.051 -4.247,14.69 0,0"
       style="fill:#000000;fill-opacity:1;fill-rule:nonzero;stroke:none"
       transform="matrix(1.3333333,0,0,-1.3333333,3635.4356,852.34093)"
       clip-path="url(#clipPath291)" />
    <path
       id="path292"
       d="m 0,0 c -28.308,-28.233 -61.366,-48.801 -97.901,-63.871 -3.59,-1.533 -7.217,-2.992 -10.882,-4.375 -8.039,-3.067 -14.92,-1.832 -22.661,1.832 -27.074,12.901 -47.903,33.693 -69.892,53.064 -6.431,5.646 -11.443,13.723 -21.839,13.35 -3.514,-0.15 -5.497,2.617 -6.169,6.394 -5.872,32.721 -3.852,64.32 14.322,93.264 8.227,13.05 19.258,22.736 35.712,23.895 7.592,4.076 15.819,2.057 23.783,2.655 0.86,0.038 4.039,-0.823 1.795,2.094 -0.747,1.01 -1.907,1.683 -2.917,2.469 -13.125,5.048 -27.261,3.402 -40.797,6.095 -9.274,1.832 -17.988,-0.898 -26.289,-7.591 5.647,-0.262 10.508,-0.487 17.277,-0.786 -12.64,-12.602 -20.755,-26.476 -27.935,-40.947 -1.234,-2.394 -2.019,-5.946 -5.534,-4.712 -2.768,0.935 -3.59,4.151 -3.515,7.067 0.299,13.8 3.777,27.523 -0.375,41.509 -1.495,5.086 3.815,7.741 8.826,8.676 9.386,1.757 18.772,3.627 28.159,5.459 -6.059,6.47 -14.098,-1.832 -20.455,3.965 10.993,2.392 21.95,3.552 33.019,-0.225 0.486,-0.15 1.01,-0.337 1.496,-0.524 13.35,-1.458 25.242,-6.768 36.236,-14.247 6.357,-2.58 13.799,-3.59 16.604,-11.331 0.935,-1.01 1.87,-2.019 2.766,-3.029 3.291,-0.486 5.348,-2.954 4.488,-5.609 -0.972,-3.066 -3.664,-0.673 -5.609,-0.038 -2.394,0.823 -4.563,1.235 -4.338,-2.505 h 0.037 c 6.918,-2.73 11.93,-7.666 15.07,-15.407 -6.095,4.114 -12.153,8.227 -18.211,12.34 -11.181,4.637 -22.511,8.041 -34.74,5.124 0.86,-4.824 4.675,-4.6 8.414,-4.824 3.216,-0.187 6.619,-0.262 9.499,-1.422 6.656,-2.729 16.08,-5.347 16.154,-12.601 0.037,-4.675 -10.284,-4.338 -16.006,-6.021 -7.329,-2.169 -14.546,-4.487 -21.8,-8.489 17.575,-1.159 34.178,-4.375 50.109,-11.219 17.277,-7.366 24.531,-28.12 13.911,-41.358 -0.748,-2.693 -2.318,-4.675 -3.89,-6.021 2.694,1.459 6.583,1.496 10.098,2.693 8.563,1.794 15.668,8.002 27.859,8.526 -11.443,-9.611 -22.287,-16.342 -28.944,-27.112 -0.56,-2.655 -1.309,-5.16 -4.039,-8.077 2.767,2.543 5.012,3.702 7.292,4.712 13.762,16.566 31.375,24.68 52.653,28.869 7.366,1.458 14.696,3.852 21.689,7.18 2.355,1.084 4.674,2.281 6.955,3.589 0.037,0 0.075,0.038 0.112,0.038 5.086,2.954 9.911,6.357 14.36,10.246 4.562,4.002 7.854,2.954 10.658,0.112 0.673,-0.673 1.346,-1.383 1.945,-2.094 C 8.787,37.283 16.715,16.678 0,0"
       style="fill:#000000;fill-opacity:1;fill-rule:nonzero;stroke:none"
       transform="matrix(1.3333333,0,0,-1.3333333,3424.6544,872.79413)"
       clip-path="url(#clipPath293)" />
    <path
       id="path294"
       d="m 0,0 c 0.927,-3.512 -2.405,-7.703 -5.151,-11.746 -2.008,-2.956 -5.123,-6.825 -8.062,-7.118 -5.155,-0.515 -3.185,5.52 -4.891,8.425 -4.937,8.406 -9.476,17.076 -14.872,25.175 -7.432,11.155 3.991,11.918 8.604,16.082 5.663,5.112 10.92,4.368 14.486,-2.95 C -5.853,19.589 -0.677,11.737 0,0"
       style="fill:#000000;fill-opacity:1;fill-rule:nonzero;stroke:none"
       transform="matrix(1.3333333,0,0,-1.3333333,3474.4979,824.46187)"
       clip-path="url(#clipPath295)" />
    <path
       id="path296"
       d="m 0,0 c -8.152,-6.656 -24.045,-8.339 -27.709,-2.58 -2.207,3.44 -1.31,5.908 3.029,7.105 2.28,0.635 4.3,2.318 6.432,3.552 5.609,0.299 11.704,3.964 16.266,-2.543 C 1.832,4.862 4.899,4.001 0,0"
       style="fill:#000000;fill-opacity:1;fill-rule:nonzero;stroke:none"
       transform="matrix(1.3333333,0,0,-1.3333333,3143.6423,659.89173)"
       clip-path="url(#clipPath297)" />
    <path
       id="path298"
       d="M 0,0 C -11.031,13.724 -24.905,20.791 -38.33,28.308 -17.724,25.428 -0.486,13.126 0,0"
       style="fill:#000000;fill-opacity:1;fill-rule:nonzero;stroke:none"
       transform="matrix(1.3333333,0,0,-1.3333333,3254.2316,714.18933)"
       clip-path="url(#clipPath299)" />
    <path
       id="path300"
       d="M 0,0 C -9.047,2.755 -15.444,4.702 -22.986,6.999 -7.175,15.315 -7.175,15.315 0,0"
       style="fill:#000000;fill-opacity:1;fill-rule:nonzero;stroke:none"
       transform="matrix(1.3333333,0,0,-1.3333333,3549.4611,841.5344)"
       clip-path="url(#clipPath301)" />
    <path
       id="path302"
       d="m 0,0 c 3.599,-8 7.198,-16 11.284,-25.082 -12.898,-0.25 -25.041,1.251 -36.499,-5.094 -6.826,-3.78 -10.997,3.362 -13.945,8.306 -4.659,7.813 -5.342,15.831 3.014,22.239 C -24.077,2.208 -12.022,2.712 0,0"
       style="fill:#000000;fill-opacity:1;fill-rule:nonzero;stroke:none"
       transform="matrix(1.3333333,0,0,-1.3333333,3873.116,701.28413)"
       clip-path="url(#clipPath303)" />
    <path
       id="path304"
       d="m 0,0 c -1.786,-4.488 -7.321,-6.094 -11.673,-9.036 -5.052,-3.414 -5.736,1.344 -7.297,4.002 -3.064,5.217 -5.477,10.863 -8.923,15.798 -4.039,5.783 -4.092,10.287 2.909,12.874 5.502,2.034 11.329,4.607 14.577,-4.194 C -8.028,12.998 -3.93,7.187 0,0"
       style="fill:#000000;fill-opacity:1;fill-rule:nonzero;stroke:none"
       transform="matrix(1.3333333,0,0,-1.3333333,3817.9059,752.6112)"
       clip-path="url(#clipPath305)" />
    <path
       id="path306"
       d="m 0,0 c 4.711,-2.93 9.494,-5.752 14.105,-8.832 2.464,-1.646 7.034,-2.632 4.891,-6.919 -2.601,-5.202 -6.512,-1.513 -9.446,-0.099 -7.081,3.411 -13.965,7.245 -20.829,11.087 -2.643,1.479 -7.012,2.469 -5.421,6.722 2.238,5.986 6.078,1.27 9.143,0.545 C -4.87,1.868 -2.322,0.65 0.288,-0.31 Z"
       style="fill:#000000;fill-opacity:1;fill-rule:nonzero;stroke:none"
       transform="matrix(1.3333333,0,0,-1.3333333,3914.494,690.14973)"
       clip-path="url(#clipPath307)" />
    <path
       id="path308"
       d="m 0,0 c -15.338,-2.886 -20.329,2.611 -28.216,29.871 3.519,2.333 7.841,-0.918 7.734,-2.15 C -21.785,12.772 -7.906,8.761 0,0"
       style="fill:#000000;fill-opacity:1;fill-rule:nonzero;stroke:none"
       transform="matrix(1.3333333,0,0,-1.3333333,3922.1216,739.70067)"
       clip-path="url(#clipPath309)" />
    <path
       id="path310"
       d="m 0,0 c 7.225,-3.204 14.459,-6.386 21.67,-9.621 3.382,-1.517 3.209,-4.16 1.661,-6.772 -1.229,-2.075 -3.367,-3.639 -5.686,-1.94 C 10.973,-13.444 4.511,-8.271 -2.033,-3.21 -1.356,-2.14 -0.678,-1.07 0,0"
       style="fill:#000000;fill-opacity:1;fill-rule:nonzero;stroke:none"
       transform="matrix(1.3333333,0,0,-1.3333333,3905.4005,709.52987)"
       clip-path="url(#clipPath311)" />
    <path
       id="path312"
       d="M 0,0 C -12.049,0.123 -24.097,0.246 -36.146,0.369 -24.058,4.117 -11.991,5.796 0,0"
       style="fill:#000000;fill-opacity:1;fill-rule:nonzero;stroke:none"
       transform="matrix(1.3333333,0,0,-1.3333333,3873.116,701.28413)"
       clip-path="url(#clipPath313)" />
    <path
       id="path314"
       d="m 0,0 v -2.88 l -18.137,-20.529 h -81.147 l -7.666,7.628 h -19.071 V -2.88 l 40.723,0.935 z"
       style="fill:#000000;fill-opacity:1;fill-rule:nonzero;stroke:none"
       transform="matrix(1.3333333,0,0,-1.3333333,3432.8808,681.03227)"
       clip-path="url(#clipPath315)" />
    <path
       id="path316"
       d="M 0,0 V -5.572 H 5.572 L 5.871,-19.744 H 0 l -6.207,9.236 v 40.462 h 3.327 c 0,0 -0.112,-15.968 0,-15.968 h 22.101 l 6.208,-6.47 V 0 Z"
       style="fill:#000000;fill-opacity:1;fill-rule:nonzero;stroke:none"
       transform="matrix(1.3333333,0,0,-1.3333333,3264.8525,725.6076)"
       clip-path="url(#clipPath317)" />
    <path
       id="path318"
       d="m 0,0 -9.311,-15.033 -80.175,-9.05 -7.255,-13.985 v -0.038 l -10.658,-20.605 v -7.404 H -116 v 8.826 h -3.103 v 45.36 l 23.41,1.197 80.436,4.076 4.749,4.15 8.601,10.621 z"
       style="fill:#000000;fill-opacity:1;fill-rule:nonzero;stroke:none"
       transform="matrix(1.3333333,0,0,-1.3333333,3438.9137,715.43587)"
       clip-path="url(#clipPath319)" />
    <path
       id="path320"
       d="m 0,0 v -17.663 c 0,0.716 29.598,-1.194 29.598,0 V 0 Z"
       style="fill:#000000;fill-opacity:1;fill-rule:nonzero;stroke:none"
       transform="matrix(1.3333333,0,0,-1.3333333,3444.6563,681.04627)"
       clip-path="url(#clipPath321)" />
    <path
       id="path322"
       d="m 427.148,552.507 h 10.98 v 16.708 h -10.98 z"
       style="fill:#000000;fill-opacity:1;fill-rule:nonzero;stroke:none"
       transform="matrix(1.3333333,0,0,-1.3333333,2920,1440)"
       clip-path="url(#clipPath323)" />
    <path
       id="path324"
       d="m 0,0 v -10.264 h 52.274 v 5.132 L 44.635,0 Z"
       style="fill:#000000;fill-opacity:1;fill-rule:nonzero;stroke:none"
       transform="matrix(1.3333333,0,0,-1.3333333,3513.0812,660.3596)"
       clip-path="url(#clipPath325)" />
    <path
       id="path326"
       d="m 0,0 v -10.502 l 139.396,5.251 v 9.07 h -7.399 l -0.716,5.729 H 58.48 L 58.002,0.477 Z"
       style="fill:#000000;fill-opacity:1;fill-rule:nonzero;stroke:none"
       transform="matrix(1.3333333,0,0,-1.3333333,3513.0812,678.182)"
       clip-path="url(#clipPath327)" />
    <path
       id="path328"
       d="m 0,0 v -16.231 l 10.025,-6.445 c 0,0 83.304,-1.193 83.304,0 V -9.548 H 71.13 V 0 H 1.432 Z"
       style="fill:#000000;fill-opacity:1;fill-rule:nonzero;stroke:none"
       transform="matrix(1.3333333,0,0,-1.3333333,3511.1717,699.50507)"
       clip-path="url(#clipPath329)" />
    <path
       id="path330"
       d="m 584.207,551.552 h -64.686 v 5.967 h 64.686 z"
       style="fill:#000000;fill-opacity:1;fill-rule:nonzero;stroke:none"
       transform="matrix(1.3333333,0,0,-1.3333333,2920,1440)"
       clip-path="url(#clipPath331)" />
    <path
       id="path332"
       d="M 810.01,583.537 H 589.936 v 5.729 H 810.01 Z"
       style="fill:#000000;fill-opacity:1;fill-rule:nonzero;stroke:none"
       transform="matrix(1.3333333,0,0,-1.3333333,2920,1440)"
       clip-path="url(#clipPath333)" />
    <path
       id="path334"
       d="M 811.919,589.265 H 635.048 v 2.387 h 176.871 z"
       style="fill:#000000;fill-opacity:1;fill-rule:nonzero;stroke:none"
       transform="matrix(1.3333333,0,0,-1.3333333,2920,1440)"
       clip-path="url(#clipPath335)" />
    <path
       id="path336"
       d="m 811.919,590.459 h -87.123 v 4.297 h 87.123 z"
       style="fill:#000000;fill-opacity:1;fill-rule:nonzero;stroke:none"
       transform="matrix(1.3333333,0,0,-1.3333333,2920,1440)"
       clip-path="url(#clipPath337)" />
    <path
       id="path338"
       d="M 0,0 V -8.951 L 45.113,-9.475 V 0.955 Z"
       style="fill:#000000;fill-opacity:1;fill-rule:nonzero;stroke:none"
       transform="matrix(1.3333333,0,0,-1.3333333,4016.5624,663.224)"
       clip-path="url(#clipPath339)" />
    <path
       id="path340"
       d="M 0,0 132.235,5.49 V 0 L 27.211,-3.342 21.482,-7.877 H 0 Z"
       style="fill:#000000;fill-opacity:1;fill-rule:nonzero;stroke:none"
       transform="matrix(1.3333333,0,0,-1.3333333,3706.5809,692.1852)"
       clip-path="url(#clipPath341)" />
    <path
       id="path342"
       d="m 0,0 v -16.549 l 47.102,9.866 -1.273,28.961 H 12.412 L 12.094,2.864 Z"
       style="fill:#000000;fill-opacity:1;fill-rule:nonzero;stroke:none"
       transform="matrix(1.3333333,0,0,-1.3333333,3626.3804,737.908)"
       clip-path="url(#clipPath343)" />
    <path
       id="path344"
       d="M 0,0 C -0.139,2.084 37.634,9.229 37.634,9.229 L 53.228,-56.331 15.157,-71.926 C 15.157,-71.926 2.466,-36.918 0,0"
       style="fill:#000000;fill-opacity:1;fill-rule:nonzero;stroke:none"
       transform="matrix(1.3333333,0,0,-1.3333333,3635.6099,768.88493)"
       clip-path="url(#clipPath345)" />
    <path
       id="path346"
       d="m 0,0 v -7.638 h 49.171 v 5.251 L 17.663,-3.58 17.424,0 Z"
       style="fill:#000000;fill-opacity:1;fill-rule:nonzero;stroke:none"
       transform="matrix(1.3333333,0,0,-1.3333333,3579.9151,647.94773)"
       clip-path="url(#clipPath347)" />
    <path
       id="path348"
       d="m 0,0 h 8.354 v -20.289 h 4.058 V -3.58 H 22.437 V -23.392 H 8.832 v -5.251 H 0 Z"
       style="fill:#000000;fill-opacity:1;fill-rule:nonzero;stroke:none"
       transform="matrix(1.3333333,0,0,-1.3333333,3582.7793,600.84573)"
       clip-path="url(#clipPath349)" />
    <path
       id="path350"
       d="m 524.057,629.366 h 15.038 v -34.372 h -15.038 z"
       style="fill:#000000;fill-opacity:1;fill-rule:nonzero;stroke:none"
       transform="matrix(1.3333333,0,0,-1.3333333,2920,1440)"
       clip-path="url(#clipPath351)" />
    <path
       id="path352"
       d="m 0,0 v -33.178 h -8.116 v 5.251 h -9.308 v 20.05 h 4.415 v -15.515 h 4.297 V 0 Z"
       style="fill:#000000;fill-opacity:1;fill-rule:nonzero;stroke:none"
       transform="matrix(1.3333333,0,0,-1.3333333,3673.164,596.072)"
       clip-path="url(#clipPath353)" />
    <path
       id="path354"
       d="m 0,0 c -1.075,-10.498 -6.094,-3.631 -9.977,-2.329 -5.816,1.949 -4.134,2.335 -14.449,6.949 -4.027,1.474 -0.876,-0.357 -0.876,-0.366 -7.984,4.902 -8.665,3.458 -7.056,8.643 8.157,4.66 14.425,-2.956 21.785,-3.577 C -4.132,9.52 -1.111,5.842 0,0"
       style="fill:#000000;fill-opacity:1;fill-rule:nonzero;stroke:none"
       transform="matrix(1.3333333,0,0,-1.3333333,3951.3711,693.78493)"
       clip-path="url(#clipPath355)" />
    <path
       id="path356"
       d="m 0,0 c 0.392,1.26 1.5,2.248 2.809,2.415 11.593,1.479 12.525,-9.48 16.567,-16.517 1.259,-2.191 -1.047,-4.702 -3.305,-5.217 -6.779,-1.545 -6.366,5.134 -8.969,8.382 C 3.358,-7.949 -1.742,-5.607 0,0"
       style="fill:#000000;fill-opacity:1;fill-rule:nonzero;stroke:none"
       transform="matrix(1.3333333,0,0,-1.3333333,3947.6901,678.47133)"
       clip-path="url(#clipPath357)" />
    <path
       id="path358"
       d="m 0,0 59.673,6.206 13.844,21.482 h 26.256 l 17.663,-10.98 c 0,0 -19.572,-19.095 -78.29,-31.984 0,0 -38.669,-7.638 -39.146,15.276"
       style="fill:#000000;fill-opacity:1;fill-rule:nonzero;stroke:none"
       transform="matrix(1.3333333,0,0,-1.3333333,3348.9735,751.48067)"
       clip-path="url(#clipPath359)" />
    <path
       id="path360"
       d="m 0,0 c -43.602,-22.287 -74.79,-16.865 -74.79,-16.865 l 4.337,68.957 c 0.113,1.832 0.711,3.59 1.833,5.048 3.964,5.011 13.2,11.032 17.277,13.575 1.308,0.785 2.804,1.345 4.337,1.458 C -26.102,74.117 -17.8,64.918 -17.8,64.918 -13.35,61.44 0,0 0,0"
       style="fill:#000000;fill-opacity:1;fill-rule:nonzero;stroke:none"
       transform="matrix(1.3333333,0,0,-1.3333333,3347.1217,565.7064)"
       clip-path="url(#clipPath361)" />
    <path
       id="path362"
       d="m 0,0 h -16.23 v 29.841 c 0,0 -4.337,4.525 -8.339,6.469 -1.981,0.935 -3.477,2.73 -3.701,4.937 -0.711,5.983 -1.272,17.575 2.655,27.261 0.523,1.233 1.346,2.281 2.355,3.141 4.226,3.515 16.604,12.677 31.226,12.939 C 7.966,84.588 -4.15,23.596 0,0"
       style="fill:#000000;fill-opacity:1;fill-rule:nonzero;stroke:none"
       transform="matrix(1.3333333,0,0,-1.3333333,3232.144,588.9408)"
       clip-path="url(#clipPath363)" />
    <path
       id="path364"
       d="m 0,0 c -10.433,-14.771 -22.624,-20.194 -29.318,-22.176 -0.111,-0.037 -0.225,-0.074 -0.336,-0.074 -2.917,-0.861 -4.712,-1.01 -4.712,-1.01 -12.116,66.227 -28.981,68.77 -28.981,68.77 20.38,4.113 31.673,-2.655 31.673,-2.655 2.131,-1.085 4.151,-2.506 6.021,-4.114 10.62,-9.162 17.052,-25.055 17.052,-25.055 -2.543,-6.394 -19.745,-13.387 -19.745,-13.387 3.815,-4.45 6.694,-11.443 6.694,-11.443 L -6.357,0.935 -3.814,0.561 Z"
       style="fill:#000000;fill-opacity:1;fill-rule:nonzero;stroke:none"
       transform="matrix(1.3333333,0,0,-1.3333333,3405.7073,526.2164)"
       clip-path="url(#clipPath365)" />
    <path
       id="path366"
       d="m 0,0 v -8.115 c 0,-1.496 -1.308,-2.618 -2.767,-2.393 l -3.44,0.523 c -1.197,0.187 -2.057,1.197 -2.057,2.394 v 5.609 c 0,3.515 3.702,5.758 6.843,4.188 C -1.383,2.168 -1.346,2.168 -1.308,2.131 -0.486,1.72 0,0.897 0,0"
       style="fill:#000000;fill-opacity:1;fill-rule:nonzero;stroke:none"
       transform="matrix(1.3333333,0,0,-1.3333333,3200.7319,553.63947)"
       clip-path="url(#clipPath367)" />
    <path
       id="path368"
       d="m 0,0 -39.415,-32.047 c -2.018,-1.646 -4.562,-2.543 -7.179,-2.543 h -82.53 c 36.908,15.593 55.381,38.03 55.381,38.03 h 72.51 C 0.599,3.44 1.422,1.122 0,0"
       style="fill:#000000;fill-opacity:1;fill-rule:nonzero;stroke:none"
       transform="matrix(1.3333333,0,0,-1.3333333,3509.9644,533.59613)"
       clip-path="url(#clipPath369)" />
    <path
       id="path370"
       d="M 814.476,563.089 H 790.5 v 5.127 h 23.976 z"
       style="fill:#000000;fill-opacity:1;fill-rule:nonzero;stroke:none"
       transform="matrix(1.3333333,0,0,-1.3333333,2920,1440)"
       clip-path="url(#clipPath371)" />
    <path
       id="path372"
       d="m 0,0 h 227.265 v -7.431 h -33.257 c 0,0 -11.36,7.431 -16.709,-1.918 l -11.298,2.272 c 0,0 -6.332,6.696 -18.92,-0.354 L 0,-16.192 Z"
       style="fill:#000000;fill-opacity:1;fill-rule:nonzero;stroke:none"
       transform="matrix(1.3333333,0,0,-1.3333333,3706.5809,666.422)"
       clip-path="url(#clipPath373)" />
  </g>
</svg>
